<svg xmlns="http://www.w3.org/2000/svg" xmlns:svg="http://www.w3.org/2000/svg" xmlns:xlink="http://www.w3.org/1999/xlink" version="1.0" height="1050pt" width="1208.7198661168873pt" viewBox="185 312 1216.7198661168873 1056" ><defs><style type="text/css">
            @font-face {
                font-family: 'noto_regular';
                src: url('https://app.creately.com/diagram/assets/fonts/noto/noto-regular.woff') format('woff'),
                     url('https://app.creately.com/diagram/assets/fonts/noto/noto-regular.woff2') format('woff2');
                font-weight: normal;
                font-style: normal;
            }
        p {
            margin: 0;
        }
        </style></defs><defs><style>
            span{ display: inline-block; }
        </style></defs><g id="15p0ktq9zy"><g transform="translate(190 615)"><rect x="0" y="0" width="100" height="100" fill="rgba(255,255,255,1)" stroke="#03c9a9" stroke-width="1.5" stroke-linecap="round" stroke-linejoin="round"/></g><g transform="translate(225, 655.5) rotate(0, 15, 9.5)" width="30" height="19"><text text-decoration="none" x="1.5" fill="rgb(0, 0, 0)" font-size="10pt" font-family="Lato"  y="17">User</text><text text-decoration="none" x="28.5" fill="#4b4b4b" font-size="10pt" font-family="noto_regular"  y="17"></text></g></g><g id="8ju3pv1itk"><g transform="translate(410 610)"><ellipse cx="54.5" cy="54.5" rx="54.5" ry="54.5" fill="rgba(255,255,255,1)" stroke="#03c9a9" stroke-width="1.5" stroke-linecap="round" stroke-linejoin="round"/></g><g transform="translate(426.5, 639) rotate(0, 38, 25.5)" width="76" height="51"><text text-decoration="none" x="19.5" fill="rgb(0, 0, 0)" font-size="10pt" font-family="Lato"  y="14">Home&#160;</text><text text-decoration="none" x="2" fill="rgb(0, 0, 0)" font-size="10pt" font-family="Lato"  y="33">Automation&#160;</text><text text-decoration="none" x="16" fill="rgb(0, 0, 0)" font-size="10pt" font-family="Lato"  y="55">System</text><text text-decoration="none" x="60" fill="#4b4b4b" font-size="10pt" font-family="noto_regular"  y="55"></text></g></g><g id="5bb2ln46z7"><g transform="translate(660 500)"><ellipse cx="54.5" cy="54.5" rx="54.5" ry="54.5" fill="rgba(255,255,255,1)" stroke="#03c9a9" stroke-width="1.5" stroke-linecap="round" stroke-linejoin="round"/></g><g transform="translate(672, 537) rotate(0, 42.5, 17.5)" width="85" height="35"><text text-decoration="none" x="4" fill="rgb(0, 0, 0)" font-size="10pt" font-family="Lato"  y="14">Google&#160;</text><text text-decoration="none" x="49" fill="rgb(0, 0, 0)" font-size="10pt" font-family="Lato"  y="14">Voice&#160;</text><text text-decoration="none" x="15.5" fill="rgb(0, 0, 0)" font-size="10pt" font-family="Lato"  y="36">Assistant</text><text text-decoration="none" x="69.5" fill="#4b4b4b" font-size="10pt" font-family="noto_regular"  y="36"></text></g></g><g id="2ky6jdt77z"><g transform="translate(815 665)"><ellipse cx="54.5" cy="54.5" rx="54.5" ry="54.5" fill="rgba(255,255,255,1)" stroke="#03c9a9" stroke-width="1.5" stroke-linecap="round" stroke-linejoin="round"/></g><g transform="translate(843.5, 710) rotate(0, 26, 9.5)" width="52" height="19"><text text-decoration="none" x="3.5" fill="rgb(0, 0, 0)" font-size="10pt" font-family="Lato"  y="17">Devices</text><text text-decoration="none" x="48.5" fill="#4b4b4b" font-size="10pt" font-family="noto_regular"  y="17"></text></g></g><g id="c8ui8pr785"><g transform="translate(1200 625)"><path d="M 0,0 L 98.75,0 M 98.75,48.75 L 0,48.75 M 0,0 Z" fill="rgba(255,255,255,1)" stroke="#03c9a9" stroke-width="1.5" stroke-linecap="round" stroke-linejoin="round" stroke-dasharray="3 3"/><rect x="0" y="0" width="98.75" height="48.75" fill="rgba(255,255,255,0.01)" stroke="rgba(255,255,255,0.01)" stroke-width="1.5" stroke-linecap="round" stroke-linejoin="round" stroke-dasharray="3 3"/></g><g transform="translate(1218.375, 639.875) rotate(0, 31, 9.5)" width="62" height="19"><text text-decoration="none" x="3" fill="rgb(0, 0, 0)" font-size="10pt" font-family="Lato"  y="17">Database</text><text text-decoration="none" x="59" fill="#4b4b4b" font-size="10pt" font-family="noto_regular"  y="17"></text></g></g><g id="1bx10axj4c"><mask id="48034" x="507" y="652" width="321" height="82.81593353836479" maskUnits="userSpaceOnUse"><rect x="507" y="652" width="321" height="82.81593353836479" fill="white" /><rect x="622.6344265000001" y="689.8294685000001" width="78" height="57" fill="black" /></mask><g mask="url(#48034)"><path d="M 520,665 C 561.3,711.2 649.8,727.7 815,720" fill="none" stroke="#f6902a" stroke-width="1.5" stroke-linecap="round" stroke-linejoin="round"/><path d="M 815,720 L 806.0460603269892,714.6611020742329 L 806.581495972607,726.148630471125 Z" fill="rgb(246,144,42)" stroke="#f6902a" stroke-width="1.5" stroke-linecap="round" stroke-linejoin="round"/></g><g transform="translate(625.6344265000001, 692.8294685000001)" width="72" height="51"><text text-decoration="none" x="16.5" fill="rgb(75, 75, 75)" font-size="10pt" font-family="Lato"  y="14">follow&#160;</text><text text-decoration="none" x="55.5" fill="rgb(75, 75, 75)" font-size="10pt" font-family="Lato"  y="14"></text><text text-decoration="none" x="3.5" fill="rgb(75, 75, 75)" font-size="10pt" font-family="Lato"  y="33">recognized</text><text text-decoration="none" x="68.5" fill="rgb(75, 75, 75)" font-size="10pt" font-family="Lato"  y="33"></text><text text-decoration="none" x="2.5" fill="rgb(75, 75, 75)" font-size="10pt" font-family="Lato"  y="55">commands</text><text text-decoration="none" x="69.5" fill="#4b4b4b" font-size="10pt" font-family="noto_regular"  y="55"></text></g></g><g id="7ffrhe3y3i"><mask id="670bd" x="507" y="538.3681329232704" width="166" height="139.63186707672958" maskUnits="userSpaceOnUse"><rect x="507" y="538.3681329232704" width="166" height="139.63186707672958" fill="white" /><rect x="530.4178437500001" y="546.4946406249999" width="82" height="41" fill="black" /></mask><g mask="url(#670bd)"><path d="M 520,665 C 539.6,572.6 581.6,539.6 660,555" fill="none" stroke="#f6902a" stroke-width="1.5" stroke-linecap="round" stroke-linejoin="round"/><path d="M 660,555 L 652.575687058864,547.6817731599957 L 650.3591160625084,558.9661345959881 Z" fill="rgb(246,144,42)" stroke="#f6902a" stroke-width="1.5" stroke-linecap="round" stroke-linejoin="round"/></g><g transform="translate(533.4178437500001, 549.4946406249999)" width="76" height="35"><text text-decoration="none" x="3.5" fill="rgb(75, 75, 75)" font-size="10pt" font-family="Lato"  y="14">accept&#160;</text><text text-decoration="none" x="45.5" fill="rgb(75, 75, 75)" font-size="10pt" font-family="Lato"  y="14">told&#160;</text><text text-decoration="none" x="72.5" fill="rgb(75, 75, 75)" font-size="10pt" font-family="Lato"  y="14"></text><text text-decoration="none" x="4.5" fill="rgb(75, 75, 75)" font-size="10pt" font-family="Lato"  y="36">commands</text><text text-decoration="none" x="71.5" fill="#4b4b4b" font-size="10pt" font-family="noto_regular"  y="36"></text></g></g><g id="2a1zos3frp"><mask id="e4ed5" x="1042" y="542" width="171" height="139.63186707672958" maskUnits="userSpaceOnUse"><rect x="1042" y="542" width="171" height="139.63186707672958" fill="white" /><rect x="1043.6849921875" y="635.142515625" width="115" height="25" fill="black" /></mask><g mask="url(#e4ed5)"><path d="M 1055,555 C 1075.3,647.4 1118.8,680.4 1200,665" fill="none" stroke="#f6902a" stroke-width="1.5" stroke-linecap="round" stroke-linejoin="round"/><path d="M 1200,665 L 1190.3852204248903,660.9709951040321 L 1192.5280574132496,672.2695901335621 Z" fill="rgb(246,144,42)" stroke="#f6902a" stroke-width="1.5" stroke-linecap="round" stroke-linejoin="round"/></g><g transform="translate(1046.6849921875, 638.142515625)" width="109" height="19"><text text-decoration="none" x="4.5" fill="rgb(75, 75, 75)" font-size="10pt" font-family="Lato"  y="17">fetch&#160;</text><text text-decoration="none" x="37.5" fill="rgb(75, 75, 75)" font-size="10pt" font-family="Lato"  y="17">commands</text><text text-decoration="none" x="104.5" fill="#4b4b4b" font-size="10pt" font-family="noto_regular"  y="17"></text></g></g><g id="6t7wvej75z"><mask id="83256" x="277" y="652" width="146" height="26" maskUnits="userSpaceOnUse"><rect x="277" y="652" width="146" height="26" fill="white" /><rect x="330.39150000000006" y="652.5" width="40" height="25" fill="black" /></mask><g mask="url(#83256)"><path d="M 290,665 C 306.8,665 342.8,665 410,665" fill="none" stroke="#f6902a" stroke-width="1.5" stroke-linecap="round" stroke-linejoin="round"/><path d="M 410,665 L 401.30434782608694,659.25 L 401.30434782608694,670.75 Z" fill="rgb(246,144,42)" stroke="#f6902a" stroke-width="1.5" stroke-linecap="round" stroke-linejoin="round"/></g><g transform="translate(333.39150000000006, 655.5)" width="34" height="19"><text text-decoration="none" x="1" fill="rgb(75, 75, 75)" font-size="10pt" font-family="Lato"  y="17">enter</text><text text-decoration="none" x="33" fill="#4b4b4b" font-size="10pt" font-family="noto_regular"  y="17"></text></g></g><g id="1oo3rxvte2"><mask id="74563" x="242" y="707" width="236" height="26" maskUnits="userSpaceOnUse"><rect x="242" y="707" width="236" height="26" fill="white" /><rect x="336" y="707.5" width="48" height="25" fill="black" /></mask><g mask="url(#74563)"><path d="M 255,720 L 465,720" fill="none" stroke="#f6902a" stroke-width="1.5" stroke-linecap="round" stroke-linejoin="round"/><path d="M 255,720 L 246.30434782608697,714.25 L 246.30434782608697,725.75 Z" fill="rgb(246,144,42)" stroke="#f6902a" stroke-width="1.5" stroke-linecap="round" stroke-linejoin="round"/></g><g transform="translate(339, 710.5)" width="42" height="19"><text text-decoration="none" x="0" fill="rgb(75, 75, 75)" font-size="10pt" font-family="Lato"  y="17">output</text><text text-decoration="none" x="42" fill="#4b4b4b" font-size="10pt" font-family="noto_regular"  y="17"></text></g></g><g id="2gdrsbxou5"><g transform="translate(945 500)"><ellipse cx="54.5" cy="54.5" rx="54.5" ry="54.5" fill="rgba(255,255,255,1)" stroke="#03c9a9" stroke-width="1.5" stroke-linecap="round" stroke-linejoin="round"/></g><g transform="translate(964.5, 537) rotate(0, 35, 17.5)" width="70" height="35"><text text-decoration="none" x="19" fill="rgb(0, 0, 0)" font-size="10pt" font-family="Lato"  y="14">Voice</text><text text-decoration="none" x="51" fill="rgb(0, 0, 0)" font-size="10pt" font-family="Lato"  y="14"></text><text text-decoration="none" x="3" fill="rgb(0, 0, 0)" font-size="10pt" font-family="Lato"  y="36">Processing</text><text text-decoration="none" x="67" fill="#4b4b4b" font-size="10pt" font-family="noto_regular"  y="36"></text></g></g><g id="1kkdgwwwxi"><mask id="7a686" x="757" y="542" width="201" height="26" maskUnits="userSpaceOnUse"><rect x="757" y="542" width="201" height="26" fill="white" /><rect x="818.5" y="518.5" width="78" height="73" fill="black" /></mask><g mask="url(#7a686)"><path d="M 770,555 L 945,555" fill="none" stroke="#f6902a" stroke-width="1.5" stroke-linecap="round" stroke-linejoin="round"/><path d="M 945,555 L 936.304347826087,549.25 L 936.304347826087,560.75 Z" fill="rgb(246,144,42)" stroke="#f6902a" stroke-width="1.5" stroke-linecap="round" stroke-linejoin="round"/></g><g transform="translate(821.5, 521.5)" width="72" height="67"><text text-decoration="none" x="13.5" fill="rgb(75, 75, 75)" font-size="10pt" font-family="Lato"  y="14">identify</text><text text-decoration="none" x="58.5" fill="rgb(75, 75, 75)" font-size="10pt" font-family="Lato"  y="14"></text><text text-decoration="none" x="19" fill="rgb(75, 75, 75)" font-size="10pt" font-family="Lato"  y="33">voice&#160;</text><text text-decoration="none" x="53" fill="rgb(75, 75, 75)" font-size="10pt" font-family="Lato"  y="33"></text><text text-decoration="none" x="2.5" fill="rgb(75, 75, 75)" font-size="10pt" font-family="Lato"  y="52">commands</text><text text-decoration="none" x="69.5" fill="rgb(75, 75, 75)" font-size="10pt" font-family="Lato"  y="52"></text><text text-decoration="none" x="36" fill="#4b4b4b" font-size="10pt" font-family="noto_regular"  y="74"></text></g></g><g id="gby0a8tn55"><mask id="962e5" x="227" y="597" width="251" height="31.16508486712405" maskUnits="userSpaceOnUse"><rect x="227" y="597" width="251" height="31.16508486712405" fill="white" /><rect x="312.26593749999984" y="602.4050625" width="79" height="25" fill="black" /></mask><g mask="url(#962e5)"><path d="M 465,610 C 433.5,614.2 366,615.7 240,615" fill="none" stroke="#f6902a" stroke-width="1.5" stroke-linecap="round" stroke-linejoin="round"/><path d="M 240,615 L 248.66357403337005,620.7982197007353 L 248.7274619363421,609.2983971657632 Z" fill="rgb(246,144,42)" stroke="#f6902a" stroke-width="1.5" stroke-linecap="round" stroke-linejoin="round"/></g><g transform="translate(315.26593749999984, 605.4050625)" width="73" height="19"><text text-decoration="none" x="2" fill="rgb(75, 75, 75)" font-size="10pt" font-family="Lato"  y="17">notification</text><text text-decoration="none" x="71" fill="#4b4b4b" font-size="10pt" font-family="noto_regular"  y="17"></text></g></g><g id="322li0v9l8"><g transform="translate(435 840)"><ellipse cx="54.5" cy="54.5" rx="54.5" ry="54.5" fill="rgba(255,255,255,1)" stroke="#03c9a9" stroke-width="1.5" stroke-linecap="round" stroke-linejoin="round"/></g><g transform="translate(445, 885) rotate(0, 44.5, 9.5)" width="89" height="19"><text text-decoration="none" x="4" fill="rgb(0, 0, 0)" font-size="10pt" font-family="Lato"  y="17">Relay&#160;</text><text text-decoration="none" x="39" fill="rgb(0, 0, 0)" font-size="10pt" font-family="Lato"  y="17">module</text><text text-decoration="none" x="85" fill="#4b4b4b" font-size="10pt" font-family="noto_regular"  y="17"></text></g></g><g id="315xjuhmto"><g transform="translate(620 950)"><rect x="0" y="0" width="100" height="100" fill="rgba(255,255,255,1)" stroke="#03c9a9" stroke-width="1.5" stroke-linecap="round" stroke-linejoin="round"/></g><g transform="translate(636, 990.5) rotate(0, 34, 9.5)" width="68" height="19"><text text-decoration="none" x="2.5" fill="rgb(0, 0, 0)" font-size="10pt" font-family="Lato"  y="17">PIR&#160;</text><text text-decoration="none" x="25.5" fill="rgb(0, 0, 0)" font-size="10pt" font-family="Lato"  y="17">sensor</text><text text-decoration="none" x="65.5" fill="#4b4b4b" font-size="10pt" font-family="noto_regular"  y="17"></text></g></g><g id="49wvda6nko"><g transform="translate(825 1030)"><rect x="0" y="0" width="100" height="100" fill="rgba(255,255,255,1)" stroke="#03c9a9" stroke-width="1.5" stroke-linecap="round" stroke-linejoin="round"/></g><g transform="translate(835.5, 1070.5) rotate(0, 39.5, 9.5)" width="79" height="19"><text text-decoration="none" x="3" fill="rgb(0, 0, 0)" font-size="10pt" font-family="Lato"  y="17">LDR&#160;</text><text text-decoration="none" x="30" fill="rgb(0, 0, 0)" font-size="10pt" font-family="Lato"  y="17">module</text><text text-decoration="none" x="76" fill="#4b4b4b" font-size="10pt" font-family="noto_regular"  y="17"></text></g></g><g id="9pdqetle3z"><g transform="translate(1020 960)"><rect x="0" y="0" width="100" height="100" fill="rgba(255,255,255,1)" stroke="#03c9a9" stroke-width="1.5" stroke-linecap="round" stroke-linejoin="round"/></g><g transform="translate(1037, 992.5) rotate(0, 33, 17.5)" width="66" height="35"><text text-decoration="none" x="3" fill="rgb(0, 0, 0)" font-size="10pt" font-family="Lato"  y="14">Ultrasonic&#160;</text><text text-decoration="none" x="13" fill="rgb(0, 0, 0)" font-size="10pt" font-family="Lato"  y="36">sensor</text><text text-decoration="none" x="53" fill="#4b4b4b" font-size="10pt" font-family="noto_regular"  y="36"></text></g></g><g id="12ay2q7ku2"><g transform="translate(1170 820)"><rect x="0" y="0" width="100" height="100" fill="rgba(255,255,255,1)" stroke="#03c9a9" stroke-width="1.5" stroke-linecap="round" stroke-linejoin="round"/></g><g transform="translate(1179.5, 844.5) rotate(0, 40.5, 25.5)" width="81" height="51"><text text-decoration="none" x="20" fill="rgb(0, 0, 0)" font-size="10pt" font-family="Lato"  y="14">Heat&#160;</text><text text-decoration="none" x="52" fill="rgb(0, 0, 0)" font-size="10pt" font-family="Lato"  y="14">&#x26;&#160;</text><text text-decoration="none" x="2.5" fill="rgb(0, 0, 0)" font-size="10pt" font-family="Lato"  y="33">temperature&#160;</text><text text-decoration="none" x="20.5" fill="rgb(0, 0, 0)" font-size="10pt" font-family="Lato"  y="55">sensor</text><text text-decoration="none" x="60.5" fill="#4b4b4b" font-size="10pt" font-family="noto_regular"  y="55"></text></g></g><g id="14ba33n7vt"><g transform="translate(805 315)"><ellipse cx="54.5" cy="54.5" rx="54.5" ry="54.5" fill="rgba(255,255,255,1)" stroke="#03c9a9" stroke-width="1.5" stroke-linecap="round" stroke-linejoin="round"/></g><g transform="translate(834, 360) rotate(0, 25.5, 9.5)" width="51" height="19"><text text-decoration="none" x="1.5" fill="rgb(0, 0, 0)" font-size="10pt" font-family="Lato"  y="17">internet</text><text text-decoration="none" x="49.5" fill="#4b4b4b" font-size="10pt" font-family="noto_regular"  y="17"></text></g></g><g id="97cg8q7ntw"><mask id="4fe4c" x="902" y="348.5806717766724" width="336" height="289.4193282233276" maskUnits="userSpaceOnUse"><rect x="902" y="348.5806717766724" width="336" height="289.4193282233276" fill="white" /><rect x="1066.6045039999997" y="401.83389199999993" width="128" height="25" fill="black" /></mask><g mask="url(#4fe4c)"><path d="M 1225,625 C 1181.6,410.8 1088.6,334.3 915,370" fill="none" stroke="#f6902a" stroke-width="1.5" stroke-linecap="round" stroke-linejoin="round"/><path d="M 915,370 L 924.6756392588875,373.8805762022609 L 922.3591938796328,362.6162927894144 Z" fill="rgb(246,144,42)" stroke="#f6902a" stroke-width="1.5" stroke-linecap="round" stroke-linejoin="round"/></g><g transform="translate(1069.6045039999997, 404.83389199999993)" width="122" height="19"><text text-decoration="none" x="5" fill="rgb(75, 75, 75)" font-size="10pt" font-family="Lato"  y="17">Validate&#160;</text><text text-decoration="none" x="56" fill="rgb(75, 75, 75)" font-size="10pt" font-family="Lato"  y="17">command</text><text text-decoration="none" x="117" fill="#4b4b4b" font-size="10pt" font-family="noto_regular"  y="17"></text></g></g><g id="1z70z29k0w"><g><path d="M 805,370 C 781.9,365.8 732.4,364.3 640,365 C 534.6245392949818,365.798298944735 482.1245392949818,439.298298944735 465,610" fill="none" stroke="#f6902a" stroke-width="1.5" stroke-linecap="round" stroke-linejoin="round"/><path d="M 465,610 L 471.5892613097143,601.9217265383016 L 460.1466950332328,600.7738254065279 Z" fill="rgb(246,144,42)" stroke="#f6902a" stroke-width="1.5" stroke-linecap="round" stroke-linejoin="round"/></g></g><g id="1gc4rat0ut"><g><path d="M 870,775 C 870.7,989.2 872.2,1065.7 875,1030" fill="none" stroke="#f6902a" stroke-width="1.5" stroke-linecap="round" stroke-linejoin="round"/><path d="M 875,1030 L 868.5876804552419,1038.219429711701 L 880.0524718000862,1039.118629032865 Z" fill="rgb(246,144,42)" stroke="#f6902a" stroke-width="1.5" stroke-linecap="round" stroke-linejoin="round"/></g></g><g id="uhfkd88xu5"><g><path d="M 870,775 C 898,930.4 958,985.9 1070,960" fill="none" stroke="#f6902a" stroke-width="1.5" stroke-linecap="round" stroke-linejoin="round"/><path d="M 1070,960 L 1060.232427192937,956.3570083463726 L 1062.8234255808893,967.5613256996801 Z" fill="rgb(246,144,42)" stroke="#f6902a" stroke-width="1.5" stroke-linecap="round" stroke-linejoin="round"/></g></g><g id="45qzjqa2s1"><g><path d="M 870,775 C 912,854.8 1002,883.3 1170,870" fill="none" stroke="#f6902a" stroke-width="1.5" stroke-linecap="round" stroke-linejoin="round"/><path d="M 1170,870 L 1160.8776812750007,864.9541930467757 L 1161.7852583273782,876.4183242347026 Z" fill="rgb(246,144,42)" stroke="#f6902a" stroke-width="1.5" stroke-linecap="round" stroke-linejoin="round"/></g></g><g id="r9j9h57jzk"><g><path d="M 870,775 C 842,922 782,974.5 670,950" fill="none" stroke="#f6902a" stroke-width="1.5" stroke-linecap="round" stroke-linejoin="round"/><path d="M 670,950 L 677.2660257068362,957.4754088287714 L 679.7235398130987,946.2410586287144 Z" fill="rgb(246,144,42)" stroke="#f6902a" stroke-width="1.5" stroke-linecap="round" stroke-linejoin="round"/></g></g><g id="17hwt466wh"><g><path d="M 870,775 C 824.5,875.8 727,911.8 545,895" fill="none" stroke="#f6902a" stroke-width="1.5" stroke-linecap="round" stroke-linejoin="round"/><path d="M 545,895 L 553.1303183728647,901.5249360062406 L 554.1873630013608,890.073619197534 Z" fill="rgb(246,144,42)" stroke="#f6902a" stroke-width="1.5" stroke-linecap="round" stroke-linejoin="round"/></g></g><g id="29g1o8yexc"><g transform="translate(670 1140)"><rect x="0" y="0" width="100" height="100" fill="rgba(255,255,255,1)" stroke="#03c9a9" stroke-width="1.5" stroke-linecap="round" stroke-linejoin="round"/></g><g transform="translate(699.5, 1180.5) rotate(0, 20.5, 9.5)" width="41" height="19"><text text-decoration="none" x="2" fill="rgb(0, 0, 0)" font-size="10pt" font-family="Lato"  y="17">Bulb&#160;</text><text text-decoration="none" x="32" fill="rgb(0, 0, 0)" font-size="10pt" font-family="Lato"  y="17">2</text><text text-decoration="none" x="39" fill="#4b4b4b" font-size="10pt" font-family="noto_regular"  y="17"></text></g></g><g id="1fpsdriouf"><g transform="translate(520 1265)"><rect x="0" y="0" width="100" height="100" fill="rgba(255,255,255,1)" stroke="#03c9a9" stroke-width="1.5" stroke-linecap="round" stroke-linejoin="round"/></g><g transform="translate(551.5, 1305.5) rotate(0, 18.5, 9.5)" width="37" height="19"><text text-decoration="none" x="0" fill="rgb(0, 0, 0)" font-size="10pt" font-family="Lato"  y="17">Motor</text><text text-decoration="none" x="38" fill="#4b4b4b" font-size="10pt" font-family="noto_regular"  y="17"></text></g></g><g id="26wifgf6j5"><g transform="translate(355 1260)"><rect x="0" y="0" width="100" height="100" fill="rgba(255,255,255,1)" stroke="#03c9a9" stroke-width="1.5" stroke-linecap="round" stroke-linejoin="round"/></g><g transform="translate(394, 1300.5) rotate(0, 11, 9.5)" width="22" height="19"><text text-decoration="none" x="0" fill="rgb(0, 0, 0)" font-size="10pt" font-family="Lato"  y="17">Fan</text><text text-decoration="none" x="22" fill="#4b4b4b" font-size="10pt" font-family="noto_regular"  y="17"></text></g></g><g id="b03cmwchbu"><g transform="translate(210 1140)"><rect x="0" y="0" width="100" height="100" fill="rgba(255,255,255,1)" stroke="#03c9a9" stroke-width="1.5" stroke-linecap="round" stroke-linejoin="round"/></g><g transform="translate(239.5, 1180.5) rotate(0, 20.5, 9.5)" width="41" height="19"><text text-decoration="none" x="2" fill="rgb(0, 0, 0)" font-size="10pt" font-family="Lato"  y="17">Bulb&#160;</text><text text-decoration="none" x="32" fill="rgb(0, 0, 0)" font-size="10pt" font-family="Lato"  y="17">1</text><text text-decoration="none" x="39" fill="#4b4b4b" font-size="10pt" font-family="noto_regular"  y="17"></text></g></g><g id="22o1msoghn"><g><path d="M 490,950 C 464.8,1151.6 410.8,1223.6 310,1190" fill="none" stroke="#f6902a" stroke-width="1.5" stroke-linecap="round" stroke-linejoin="round"/><path d="M 310,1190 L 316.43111032845115,1198.2047356248065 L 320.0677296376448,1187.2948776972255 Z" fill="rgb(246,144,42)" stroke="#f6902a" stroke-width="1.5" stroke-linecap="round" stroke-linejoin="round"/></g></g><g id="48pws3bin1"><g><path d="M 490,950 C 478.1,1210.4 452.6,1303.4 405,1260" fill="none" stroke="#f6902a" stroke-width="1.5" stroke-linecap="round" stroke-linejoin="round"/><path d="M 405,1260 L 407.551618308858,1270.1077252997684 L 415.2997876722434,1261.6097330947653 Z" fill="rgb(246,144,42)" stroke="#f6902a" stroke-width="1.5" stroke-linecap="round" stroke-linejoin="round"/></g></g><g id="1e4zqe5qc7"><g><path d="M 490,950 C 501.2,1214.6 525.2,1309.1 570,1265" fill="none" stroke="#f6902a" stroke-width="1.5" stroke-linecap="round" stroke-linejoin="round"/><path d="M 570,1265 L 559.76929782305,1267.0023984858738 L 567.8367463649647,1275.1979017665492 Z" fill="rgb(246,144,42)" stroke="#f6902a" stroke-width="1.5" stroke-linecap="round" stroke-linejoin="round"/></g></g><g id="88iwgjzg8l"><g><path d="M 490,950 C 515.2,1151.6 569.2,1223.6 670,1190" fill="none" stroke="#f6902a" stroke-width="1.5" stroke-linecap="round" stroke-linejoin="round"/><path d="M 670,1190 L 659.9322703623552,1187.2948776972255 L 663.5688896715488,1198.2047356248065 Z" fill="rgb(246,144,42)" stroke="#f6902a" stroke-width="1.5" stroke-linecap="round" stroke-linejoin="round"/></g></g><g id="4wcen9b39p"><g><path d="M 670,1050 C 674.2,1087.8 683.2,1101.3 700,1095 C 716.1381026197129,1088.9482115176077 722.1381026197129,1102.4482115176077 720,1140" fill="none" stroke="#f6902a" stroke-width="1.5" stroke-linecap="round" stroke-linejoin="round"/><path d="M 720,1140 L 726.2350097810202,1131.6452696177398 L 714.7536053428553,1130.991547867077 Z" fill="rgb(246,144,42)" stroke="#f6902a" stroke-width="1.5" stroke-linecap="round" stroke-linejoin="round"/></g></g><g id="9rxr4l2igx"><g><path d="M 1070,1060 C 1007,1274.2 872,1350.7 620,1315" fill="none" stroke="#f6902a" stroke-width="1.5" stroke-linecap="round" stroke-linejoin="round"/><path d="M 620,1315 L 627.8031553227637,1321.9128600259592 L 629.4162157849705,1310.5265508809698 Z" fill="rgb(246,144,42)" stroke="#f6902a" stroke-width="1.5" stroke-linecap="round" stroke-linejoin="round"/></g></g><g id="1dkx6vtzl9"><mask id="9cfb4" x="902" y="323.4983170117356" width="478.26432429319357" height="509.5016829882644" maskUnits="userSpaceOnUse"><rect x="902" y="323.4983170117356" width="478.26432429319357" height="509.5016829882644" fill="white" /><rect x="1331.7198661168873" y="656.464909028536" width="70" height="25" fill="black" /></mask><g mask="url(#9cfb4)"><path d="M 1220,820 C 1225.6,807.4 1237.6,802.9 1260,805 C 1344.9478628324832,812.9638621405453 1376.4478628324832,746.9638621405453 1365,585 C 1359.9186966431018,513.1099425776056 1329.9186966431018,459.1099425776055 1265,405 C 1186.7585411197324,339.78549222153543 1101.1835411197326,322.4904922215354 979.7500000000001,347.34999999999997 C 956.2287741354734,352.16519431902003 936.8037741354734,358.96019431902005 915,370" fill="none" stroke="#f6902a" stroke-width="1.5" stroke-linecap="round" stroke-linejoin="round"/><path d="M 915,370 L 925.3553043980892,371.20188915986245 L 920.1604951960381,360.9420666782458 Z" fill="rgb(246,144,42)" stroke="#f6902a" stroke-width="1.5" stroke-linecap="round" stroke-linejoin="round"/></g><g transform="translate(1334.7198661168873, 659.464909028536)" width="64" height="19"><text text-decoration="none" x="2.5" fill="rgb(75, 75, 75)" font-size="10pt" font-family="Lato"  y="17">send&#160;</text><text text-decoration="none" x="34.5" fill="rgb(75, 75, 75)" font-size="10pt" font-family="Lato"  y="17">data</text><text text-decoration="none" x="61.5" fill="#4b4b4b" font-size="10pt" font-family="noto_regular"  y="17"></text></g></g></svg>